# xmcd
#
# Track frame offsets:
#	150
#	19615
#	42410
#	60910
#	83120
#	105667
#	123132
#	148057
#	172602
#	190065
#
# Disc length: 2826 seconds
#
# Revision: 3272102467
# Processed by: cddbd v1.5.2PL0 Copyright (c) Steve Scherf et al.
# Submitted via: EZCDAudioConverter 8.0.2.1
#
DISCID=720b080a
DTITLE=Various Artist - Nỗ Buồn Hoa Phượng
DYEAR=2000
DGENRE=World Pop
TTITLE0=Hương Lan - Chuyện tình La Lan
TTITLE1=Mỹ Huyền - Mua sầu riêng
TTITLE2=Hương Lan - Tàu về quê hương
TTITLE3=Mỹ Huyền - Luyến thương
TTITLE4=Phi Nhung - Nối lại tình xưa
TTITLE5=Mỹ Huyền - Nỗi niềm đêm đông
TTITLE6=Hương Lan - Đám cưới trên đường quê
TTITLE7=Mỹ Huyền - Tiếng ca u hoài
TTITLE8=Hương Lan - Trông đợi người về
TTITLE9=Phi Nhung - Nỗ Buồn Hoa Phượng
EXTD=
EXTT0=
EXTT1=
EXTT2=
EXTT3=
EXTT4=
EXTT5=
EXTT6=
EXTT7=
EXTT8=
EXTT9=
PLAYORDER=
